<?xml version="1.0" encoding="utf-8"?>
<!-- Generator: Adobe Illustrator 18.1.0, SVG Export Plug-In . SVG Version: 6.00 Build 0)  -->
<svg version="1.1" id="图层_1" xmlns="http://www.w3.org/2000/svg" xmlns:xlink="http://www.w3.org/1999/xlink" x="0px" y="0px"
	 viewBox="-159.5 361.2 125 124.9" enable-background="new -159.5 361.2 125 124.9" xml:space="preserve">
<g>
	<g transform="scale(0.1953125, 0.1953125)">
		<path fill="#FFFFFF" d="M-451.3,2168.2l265.3-263.9c12.5-12.5,12.6-32.7,0.1-45.2c-12.5-12.6-32.7-12.6-45.2-0.1l-265.3,263.9
			l-263-263.8c-12.4-12.5-32.7-12.5-45.2-0.1c-12.5,12.5-12.5,32.7-0.1,45.3l263,263.8L-807,2431.8c-12.5,12.5-12.6,32.7-0.1,45.2
			c6.2,6.3,14.5,9.4,22.7,9.4c8.2,0,16.3-3.1,22.6-9.3l265.2-263.8l265.4,266.2c6.2,6.3,14.4,9.4,22.7,9.4c8.2,0,16.4-3.1,22.6-9.3
			c12.5-12.5,12.5-32.7,0.1-45.2L-451.3,2168.2L-451.3,2168.2z"/>
	</g>
</g>
</svg>
